<?xml version="1.0" standalone="no"?>
<!DOCTYPE svg PUBLIC "-//W3C//DTD SVG 20010904//EN"
 "http://www.w3.org/TR/2001/REC-SVG-20010904/DTD/svg10.dtd">
<svg version="1.0" xmlns="http://www.w3.org/2000/svg"
 width="888.000000pt" height="888.000000pt" viewBox="0 0 888.000000 888.000000"
 preserveAspectRatio="xMidYMid meet">
<metadata>
Created by potrace 1.14, written by Peter Selinger 2001-2017
</metadata>
<g transform="translate(0.000000,888.000000) scale(0.100000,-0.100000)"
fill="#000000" stroke="none">
<path d="M6487 8053 c-3 -2 -193 -9 -443 -15 l-102 -3 -33 -85 c-18 -47 -34
-87 -35 -90 0 -3 -4 -14 -9 -25 -4 -11 -36 -96 -72 -190 -35 -93 -68 -179 -73
-190 -5 -11 -20 -49 -33 -85 -30 -82 -195 -515 -211 -555 -7 -16 -19 -46 -26
-65 -7 -19 -19 -50 -27 -68 -8 -18 -16 -42 -18 -53 -2 -12 -9 -27 -16 -35 -6
-8 -8 -14 -4 -14 4 0 3 -6 -2 -12 -6 -7 -16 -31 -23 -53 -7 -22 -18 -46 -24
-54 -6 -8 -9 -15 -6 -15 3 -1 -2 -20 -12 -41 -9 -22 -26 -67 -38 -100 -12 -33
-29 -74 -36 -92 -8 -17 -14 -34 -14 -38 0 -4 -6 -21 -14 -38 -7 -18 -24 -59
-36 -92 -12 -33 -28 -73 -35 -90 -7 -16 -24 -64 -39 -105 -15 -41 -33 -88 -40
-105 -8 -16 -19 -46 -26 -65 -7 -19 -16 -44 -21 -55 -5 -11 -20 -50 -34 -87
l-24 -67 81 5 c45 3 85 7 89 10 4 2 10 0 14 -6 4 -6 12 -7 18 -3 7 4 51 9 100
9 48 1 94 4 102 8 8 3 15 1 15 -5 0 -6 7 -6 18 -1 17 9 918 7 1097 -1 191 -10
342 -20 480 -32 39 -4 93 -8 120 -10 28 -2 50 -4 50 -5 0 -2 42 -7 129 -15 43
-4 88 -8 99 -11 11 -2 41 -6 66 -9 50 -6 98 -13 146 -21 17 -2 46 -7 65 -9 19
-3 49 -7 65 -9 26 -4 45 -7 119 -19 11 -2 53 101 192 468 31 83 62 164 69 180
32 77 110 291 107 298 -1 4 2 7 8 7 5 0 10 5 10 12 0 11 96 268 128 343 9 21
17 42 18 45 0 3 4 14 8 25 65 165 133 348 134 355 0 3 16 42 35 88 19 45 33
82 31 82 -3 0 3 15 13 33 9 17 18 38 19 45 1 8 6 21 10 30 4 9 8 19 9 22 1 3
7 19 14 35 7 17 14 35 15 40 2 6 7 19 11 30 4 11 28 72 52 135 24 63 50 131
57 150 48 122 50 133 25 136 -5 1 -10 2 -11 4 -2 1 -14 3 -28 5 -36 4 -112 15
-135 19 -18 3 -92 14 -155 22 -14 2 -56 8 -95 13 -88 12 -168 21 -220 26 -40
3 -142 12 -222 20 -23 2 -82 7 -130 10 -48 3 -124 8 -168 11 -176 12 -318 15
-723 17 -233 2 -424 2 -425 0z"/>
<path d="M1075 6051 c-3 -6 -3 -11 2 -11 4 0 3 -4 -3 -8 -6 -4 -20 -34 -32
-67 -11 -33 -35 -96 -52 -140 -17 -44 -44 -116 -61 -160 -16 -44 -34 -89 -40
-100 -5 -12 -11 -27 -12 -35 -2 -8 -7 -22 -12 -30 -5 -8 -10 -19 -11 -25 -2
-13 -81 -220 -98 -260 -8 -16 -19 -48 -26 -70 -7 -22 -16 -44 -21 -50 -5 -5
-9 -15 -9 -23 0 -8 -7 -28 -15 -45 -8 -18 -51 -129 -95 -247 -45 -118 -85
-224 -90 -235 -11 -23 -61 -155 -64 -170 -2 -5 -9 -23 -16 -40 -16 -38 -38
-95 -85 -220 -20 -55 -43 -112 -51 -127 -8 -14 -14 -36 -14 -47 0 -12 -5 -21
-10 -21 -6 0 -9 -3 -9 -7 1 -5 0 -10 -1 -13 -1 -3 -3 -12 -5 -20 -2 -8 -31
-85 -65 -170 -34 -85 -63 -160 -64 -167 -1 -7 -5 -16 -9 -19 -11 -11 -8 -21 6
-22 12 -1 47 -6 105 -16 72 -13 89 -16 132 -20 25 -3 59 -8 75 -11 17 -4 48
-8 70 -11 37 -4 82 -9 160 -18 17 -2 62 -7 100 -11 39 -4 84 -9 100 -11 17 -2
64 -6 105 -9 41 -3 98 -8 125 -10 75 -7 253 -17 315 -19 30 -1 60 -4 65 -7 23
-13 1383 1 1477 15 37 6 42 -6 23 -51 -9 -21 -23 -58 -32 -83 -8 -25 -20 -56
-26 -70 -6 -14 -11 -27 -12 -30 -1 -3 -5 -14 -10 -25 -4 -11 -37 -96 -72 -190
-36 -93 -68 -179 -73 -190 -5 -11 -31 -78 -58 -150 -27 -71 -53 -139 -57 -150
-4 -11 -9 -24 -11 -30 -1 -5 -14 -39 -29 -75 -14 -36 -48 -123 -75 -195 -26
-71 -54 -143 -61 -160 -7 -16 -12 -33 -11 -37 1 -5 -2 -8 -6 -8 -5 0 -9 -6 -9
-12 0 -7 -37 -108 -81 -224 -45 -116 -82 -216 -82 -222 0 -7 -4 -12 -8 -12 -5
0 -9 -6 -9 -12 0 -12 -72 -204 -93 -253 -8 -18 -57 -146 -110 -286 -9 -25 -20
-57 -23 -71 -6 -24 -5 -26 15 -22 26 6 171 17 240 18 27 1 48 3 48 6 0 3 21 6
48 6 50 2 208 12 282 19 25 2 79 7 120 10 41 3 91 8 110 10 19 2 77 6 128 10
51 3 101 8 111 10 10 2 58 6 107 10 49 3 109 8 134 10 102 8 197 17 235 20 22
3 72 7 110 10 39 2 95 7 125 10 30 2 84 7 120 10 36 3 85 7 110 10 25 2 81 7
125 10 44 3 96 7 115 9 19 3 75 7 124 11 49 3 112 8 140 10 82 7 186 15 259
20 95 6 211 16 214 19 1 1 4 11 6 22 2 10 10 33 16 49 7 17 24 59 37 95 13 36
28 74 33 85 6 11 31 76 56 145 26 69 53 139 60 155 7 17 27 71 46 120 18 50
36 95 39 100 4 6 10 23 14 40 4 16 18 54 32 83 13 29 24 58 24 66 0 7 3 16 8
20 4 4 7 11 8 14 0 4 4 16 9 27 4 11 21 56 37 100 17 44 38 98 48 120 9 22 23
58 30 80 7 22 18 54 26 70 12 27 56 143 59 155 1 3 5 14 10 25 45 111 85 220
85 231 0 8 5 14 12 14 6 0 9 3 6 6 -3 3 4 31 16 62 25 63 33 83 35 94 1 5 12
33 26 63 13 31 24 56 24 58 0 3 15 44 34 90 9 20 16 38 16 40 0 3 12 36 44
117 16 41 30 80 32 85 1 6 8 24 15 40 6 17 16 42 20 57 l9 28 -47 -5 c-26 -2
-83 -7 -127 -10 -191 -13 -236 -16 -400 -30 -33 -3 -89 -7 -125 -10 -36 -2
-85 -6 -110 -9 -25 -3 -81 -8 -125 -11 -44 -4 -105 -8 -135 -11 -30 -3 -77 -7
-105 -9 -27 -2 -81 -6 -120 -10 -120 -10 -157 -14 -240 -20 -44 -3 -96 -8
-115 -10 -19 -3 -69 -7 -110 -10 -41 -3 -95 -8 -120 -10 -25 -2 -83 -7 -130
-10 -47 -4 -102 -8 -122 -10 -20 -2 -72 -7 -115 -10 -98 -8 -172 -13 -248 -20
-162 -13 -213 -17 -250 -20 -180 -12 -242 -17 -257 -21 -26 -8 -23 4 27 130
25 63 45 117 45 121 0 4 6 21 14 38 14 32 28 68 31 77 2 11 105 276 128 330 5
14 11 30 12 35 2 6 26 71 54 145 29 74 70 182 92 240 23 58 51 133 65 168 13
34 35 90 48 125 13 34 52 134 86 222 34 88 63 165 64 170 2 6 9 24 15 40 7 17
24 59 37 95 13 36 28 74 33 85 11 24 45 118 46 125 0 3 3 10 7 15 3 6 23 55
43 110 21 55 52 139 71 187 37 96 40 109 22 103 -7 -2 -77 -7 -156 -9 -78 -3
-147 -8 -152 -11 -5 -3 -11 -1 -15 5 -4 6 -13 7 -23 1 -18 -9 -1086 -8 -1237
2 -49 4 -130 9 -180 12 -49 3 -119 8 -155 11 -36 2 -90 7 -120 9 -30 2 -71 6
-90 9 -19 3 -66 8 -105 11 -38 4 -86 9 -105 12 -19 2 -48 6 -65 8 -84 10 -137
17 -224 30 -53 8 -105 17 -116 19 -70 14 -123 17 -130 7z"/>
</g>
</svg>
