<svg version="1.1" viewBox="0 0 859.67 304.66" xmlns="http://www.w3.org/2000/svg">
 <defs>
  <clipPath id="clipPath20">
   <path d="m0 560h960v-560h-960z"/>
  </clipPath>
 </defs>
 <g transform="matrix(1.3333 0 0 -1.3333 -211.21 521.44)">
  <path d="m-1117.9-347.8h959.22v556.83h-959.22z"/>
  <g clip-path="url(#clipPath20)">
   <g transform="translate(209.79 250.12)">
    <path d="m0 0-39.27-1.265 22.962 130.91c18.237 2.531 36.9 3.796 55.953 3.796 13.702 0 24.431-2.675 32.15-8.026 6.927-4.808 10.389-12.22 10.45-22.271 0.202-2.53-0.076-5.459-0.762-8.785-1.176-5.712-3.609-11.027-7.305-15.979-5.789-7.918-13.846-14.209-24.135-18.873l24.703-40.13-42.944-22.777-22.678 42.589zm27.012 77.224c3.326 0 6.385 1.158 9.211 3.471 2.784 2.278 4.701 5.965 5.766 11.136 1.065 5.17 0.668 8.857-1.177 11.134-1.873 2.315-4.455 3.471-7.781 3.471s-6.384-1.156-9.175-3.471c-2.818-2.277-4.735-5.964-5.801-11.134-1.065-5.171-0.668-8.858 1.212-11.136 1.838-2.313 4.419-3.471 7.745-3.471" fill="#000"/>
   </g>
   <g transform="translate(397.09 248.85)">
    <path d="m0 0-12.506 26.681-38.904-1.59-18.3-27.224-39.008 15.799 96.811 128.56 59.302-122.42zm-24.042 74.043-13.107-19.921 20.006 0.94z" fill="#000"/>
   </g>
   <g transform="translate(473.14 379.66)">
    <path d="m0 0 46.861 2.314-17.768-89.914h45.228l-5.765-39.733-95.294-2.422z" fill="#000"/>
   </g>
   <g transform="translate(578.53 379.66)">
    <path d="m0 0 46.862 2.314-17.768-89.914h45.228l-5.766-39.733-95.293-2.422z" fill="#000"/>
   </g>
   <g transform="translate(803.16 376.37)">
    <path d="m0 0-89.506-125.92-49.678-0.543 33.452 45.662-40.086 81.454 53.012 6.544 17.056-44.252 29.41 44.469z" fill="#000"/>
   </g>
   <g transform="translate(489.39 164.52)">
    <path d="m0 0-25.67-0.86 11.788 47.091-14.816-0.64 4.293 19.769 48.543 1.811-1.945-19.55-16.227-0.476z" fill="#f25a06"/>
   </g>
   <g transform="translate(589.52 228.16)">
    <path d="m0 0-45.274-63.696-25.129-0.274 16.921 23.097-20.277 41.202 26.815 3.31 8.628-22.384 14.876 22.494z" fill="#f25a06"/>
   </g>
   <g transform="translate(603.19 164.3)">
    <path d="m0 0-21.038-1.189 11.728 66.768c8.878 1.28 18.135 1.92 27.772 1.92 8.577 0 14.629-2.67 18.17-8.028 2.755-4.115 3.469-9.436 2.123-15.965-0.331-1.609-0.684-3.054-1.061-4.352-2.044-6.639-6.037-11.906-11.979-15.801-4.843-3.182-10.164-4.773-15.997-4.773-2.213 0-4.487 0.238-6.803 0.714zm11.883 35.569c1.683 0 3.245 0.659 4.709 1.994 1.588 2.029 2.648 4.334 3.179 6.912 0.457 2.213 0.233 3.969-0.662 5.303-0.918 1.318-2.208 1.976-3.891 1.976-1.682 0-3.244-0.658-4.686-1.976-1.464-1.334-2.411-3.09-2.867-5.303-0.531-2.578-0.421-4.883 0.35-6.912 0.895-1.335 2.186-1.994 3.868-1.994" fill="#f25a06"/>
   </g>
   <g transform="translate(651.73 229.3)">
    <path d="m0 0 42.005 2.03-3.19-19.293-21.83-0.421-1.128-6.273 17.606 0.421-2.679-14.777h-17.776l-0.979-5.998h22.878l-3.007-20.628-45.537-1.244z" fill="#f25a06"/>
   </g>
   <g transform="translate(710.19 164.3)">
    <path d="m0 0-19.864-0.64 11.615 66.219c9.225 1.28 18.665 1.92 28.303 1.92 6.931 0 12.358-1.353 16.262-4.059 3.504-2.433 5.255-6.181 5.287-11.266 0.101-1.28-0.039-2.761-0.386-4.443-0.595-2.89-1.826-5.578-3.695-8.084-2.929-4.005-7.004-7.187-12.209-9.545l12.496-20.3-21.722-11.521-11.471 21.543zm13.664 39.062c1.683 0 3.229 0.585 4.659 1.756 1.408 1.152 2.377 3.017 2.916 5.632 0.539 2.616 0.338 4.481-0.595 5.633-0.947 1.171-2.253 1.756-3.936 1.756-1.682 0-3.229-0.585-4.641-1.756-1.426-1.152-2.395-3.017-2.934-5.633-0.539-2.615-0.338-4.48 0.613-5.632 0.93-1.171 2.235-1.756 3.918-1.756" fill="#f25a06"/>
   </g>
   <g transform="translate(161.8 196.67)">
    <path d="m0 0h14.634l3.396 15.676h-14.634l3.396 15.675h14.634l-3.396-15.675h14.634l3.396 15.675h14.634l-3.397-15.675h14.635l3.395 15.675h14.634l-3.395-15.675h14.633l-3.396-15.676h14.634l3.396 15.676 3.396 15.675h-14.634l-3.395-15.675h-1e-3 29.268l3.396 15.675h14.634l-3.396-15.675h14.634l3.396 15.675h14.634l-3.396-15.675h14.634l3.396 15.675h14.634l-3.396-15.675h14.634l-3.396-15.676h14.634l3.396 15.676 3.396 15.675h-14.634l-3.396-15.675h29.268l3.396 15.675h14.634l-3.396-15.675h14.634l3.396 15.675h14.634l-3.397-15.675h-14.633l-3.396-15.676h14.634l-3.396-15.676h-14.634l-3.396-15.676h-14.634l3.396 15.676h-14.634l-3.396-15.676h-14.634l3.395 15.676h-14.633l-3.395-15.676h-14.635l3.396 15.676h-14.634l-3.395-15.676h-14.635l3.396 15.676h-14.634l-3.395-15.676h-14.635l3.397 15.676h-14.635l-3.395-15.676h-14.634l3.396 15.676h-14.635l-3.395-15.676h-14.634l3.396 15.676h-14.634l-3.396-15.676h-14.634l3.396 15.676h-14.634l-3.396-15.676h-14.634l3.396 15.676h-14.634zm219.51 0-3.396-15.676h14.634l3.396 15.676zm14.634 0h14.634l3.396 15.676h-14.634zm-69.774 15.676h-14.634l-3.396-15.676h14.634zm-3.396-15.676-3.396-15.676h14.634l3.396 15.676zm14.634 0h14.634l3.395 15.676h-14.633zm-73.17 0-3.395-15.676h14.634l3.395 15.676zm14.634 0h14.634l3.396 15.676h-14.634zm-69.774 15.676h-14.633l-3.396-15.676h14.634zm-3.395-15.676-3.396-15.676h14.634l3.396 15.676zm14.634 0h14.634l3.395 15.676h-14.634zm190.24 0-3.396-15.676h14.634l3.395 15.676zm-58.536 0-3.396-15.676h14.634l3.396 15.676zm-58.536 0-3.395-15.676h14.633l3.396 15.676zm-58.535 0-3.396-15.676h14.634l3.395 15.676zm-58.536 0-3.396-15.676h14.634l3.396 15.676z" fill="#f25a06" fill-rule="evenodd"/>
   </g>
  </g>
 </g>
</svg>
